<svg xmlns="http://www.w3.org/2000/svg" width="720" height="1860" viewBox="0 0 720 1860" role="img" aria-label="敬畏耶和華是智慧的開端">
  <rect width="720" height="1860" fill="#f4efe3"/>
  <g fill="#171512" font-family="STKaiti, KaiTi, 'Noto Serif CJK TC', serif" text-anchor="middle">
    <text x="360" y="155" font-size="112" transform="rotate(-1.2 360 155)">敬</text>
    <text x="368" y="300" font-size="101" transform="rotate(.8 368 300)">畏</text>
    <text x="354" y="456" font-size="117" transform="rotate(-.5 354 456)">耶</text>
    <text x="365" y="592" font-size="106" transform="rotate(1.1 365 592)">和</text>
    <text x="357" y="754" font-size="110" transform="rotate(-.8 357 754)">華</text>
    <text x="366" y="900" font-size="99" transform="rotate(.4 366 900)">是</text>
    <text x="359" y="1055" font-size="116" transform="rotate(-1 359 1055)">智</text>
    <text x="367" y="1194" font-size="103" transform="rotate(.7 367 1194)">慧</text>
    <text x="355" y="1355" font-size="109" transform="rotate(-.6 355 1355)">的</text>
    <text x="365" y="1500" font-size="102" transform="rotate(.9 365 1500)">開</text>
    <text x="359" y="1655" font-size="115" transform="rotate(-.7 359 1655)">端</text>
  </g>
  <text x="664" y="1775" font-family="serif" font-size="16" fill="#171512" opacity=".45" text-anchor="end">TC001 · first render / glyph crops pending</text>
</svg>
